<?xml version="1.0" standalone="no"?><!DOCTYPE svg PUBLIC "-//W3C//DTD SVG 1.1//EN" "http://www.w3.org/Graphics/SVG/1.1/DTD/svg11.dtd"><svg t="1750433347350" class="icon" viewBox="0 0 1024 1024" version="1.1" xmlns="http://www.w3.org/2000/svg" p-id="17176" xmlns:xlink="http://www.w3.org/1999/xlink" width="512" height="512"><path d="M1000.705023 1023.967H861.060159a23.294977 23.294977 0 0 1 0-46.558955H977.410045V861.092159a23.294977 23.294977 0 0 1 46.558955 0v139.643864a23.294977 23.294977 0 0 1-23.262977 23.262977z m0-279.254727a23.294977 23.294977 0 0 1-23.295978-23.295978V581.805432a23.294977 23.294977 0 0 1 46.558955 0v139.610863a23.294977 23.294977 0 0 1-23.262977 23.295978z m0-279.287728a23.294977 23.294977 0 0 1-23.295978-23.262977V302.550705a23.294977 23.294977 0 0 1 46.558955 0v139.610863a23.294977 23.294977 0 0 1-23.262977 23.262977z m0-279.254727a23.294977 23.294977 0 0 1-23.295978-23.262977V46.558955H861.093159a23.294977 23.294977 0 0 1 0-46.558955h139.643864c12.799988 0 23.262977 10.43199 23.262977 23.262977v139.643864a23.294977 23.294977 0 0 1-23.262977 23.262977z m-279.287728 837.797182H581.806432a23.294977 23.294977 0 0 1 0-46.558955h139.610863a23.294977 23.294977 0 0 1 0 46.558955z m0-977.409045H581.806432a23.294977 23.294977 0 0 1 0-46.557955h139.610863a23.294977 23.294977 0 0 1 0 46.558955z m-26.142974 418.86659a46.526955 46.526955 0 1 1 0 93.11791H555.631457v139.610863a46.558955 46.558955 0 0 1-93.084909 0V558.542455H322.934685a46.558955 46.558955 0 0 1 0-93.11791h139.611863V325.813682a46.526955 46.526955 0 1 1 93.116909 0v139.610863h139.610864zM442.162568 46.559955H302.551705a23.294977 23.294977 0 0 1 0-46.558955h139.610863a23.294977 23.294977 0 0 1 0 46.558955z m-279.254727 977.408045H23.263977A23.294977 23.294977 0 0 1 0.001 1000.704023V861.059159a23.294977 23.294977 0 0 1 46.558955 0V977.409045h116.315886a23.294977 23.294977 0 0 1 0 46.558955z m0-977.409045H46.559955v116.316886a23.294977 23.294977 0 0 1-46.558955 0V23.262977C0.001 10.43199 10.43299 0 23.263977 0h139.643864a23.294977 23.294977 0 0 1 0 46.558955zM23.263977 279.255727c12.863987 0 23.295977 10.43199 23.295978 23.295978v139.610863a23.294977 23.294977 0 0 1-46.558955 0V302.550705c0-12.863987 10.43199-23.295977 23.262977-23.295978z m0 279.287728c12.863987 0 23.295977 10.39999 23.295978 23.262977v139.610863a23.294977 23.294977 0 0 1-46.558955 0V581.805432c0-12.863987 10.43199-23.262977 23.262977-23.262977z m279.287728 418.86559h139.610863a23.294977 23.294977 0 0 1 0 46.558955H302.551705a23.294977 23.294977 0 0 1 0-46.558955z" fill="#2c2c2c" p-id="17177"></path></svg>