<?xml version="1.0" standalone="no"?><!DOCTYPE svg PUBLIC "-//W3C//DTD SVG 1.1//EN" "http://www.w3.org/Graphics/SVG/1.1/DTD/svg11.dtd"><svg t="1756536862872" class="icon" viewBox="0 0 1024 1024" version="1.1" xmlns="http://www.w3.org/2000/svg" p-id="26674" xmlns:xlink="http://www.w3.org/1999/xlink" width="512" height="512"><path d="M512 0C230.4 0 0 200.533333 0 445.866667c0 145.066667 81.066667 279.466667 215.466667 362.666666l2.133333 2.133334v213.333333l196.266667-142.933333h2.133333c32 4.266667 64 8.533333 93.866667 8.533333 281.6 0 512-200.533333 512-445.866667C1024 200.533333 793.6 0 512 0zM234.666667 514.133333c-38.4 0-70.4-29.866667-70.4-66.133333 0-36.266667 32-66.133333 70.4-66.133333s70.4 29.866667 70.4 66.133333c-2.133333 36.266667-32 66.133333-70.4 66.133333z m277.333333 0c-38.4 0-70.4-29.866667-70.4-66.133333 0-36.266667 32-66.133333 70.4-66.133333s68.266667 29.866667 68.266667 66.133333c0 36.266667-29.866667 66.133333-68.266667 66.133333z m277.333333 0c-38.4 0-68.266667-29.866667-68.266666-66.133333 0-36.266667 32-66.133333 68.266666-66.133333 38.4 0 70.4 29.866667 70.4 66.133333 0 36.266667-32 66.133333-70.4 66.133333z" p-id="26675" fill="#d81e06"></path></svg>